<?xml version="1.0" encoding="UTF-8"?>
<svg version="1.1" viewBox="0 0 2032 1656" width="1280" height="1280" xmlns="http://www.w3.org/2000/svg">
<path transform="translate(1849,681)" d="m0 0 5 1 14 7 27 9 24 6 19 4 2 1-2 4-15 10-15 12-8 7-4 2v2l-8 7-9 9-7 8-4 2 1-10 5-31-8-1-3-4 2-5 4-2h3l-11-18-10-15z"/>
<path transform="translate(1537,913)" d="m0 0 5 1 10 6 11 7 7 6-1 7-2 2-5-1-6-4-2 4-11 13-7 9-6 1-4-2 3-9 10-12 6-8-1-4-10-7 1-7z"/>
<path transform="translate(1442,1141)" d="m0 0 9 2 1 1-1 27-1 10-2 2-6-1-3-3v-27l2-10z"/>
<path transform="translate(923,1611)" d="m0 0 9 2 2 3-5 33-4 7-5-1v-2h2v-2h-3l-1-2 1-16 3-21z"/>
<path transform="translate(957,1376)" d="m0 0 9 1 2 1-1 10-5 25-2 3-9-1-1-3 6-35z"/>
<path transform="translate(948,1434)" d="m0 0h6l3 3-2 22-3 14-2 2-6-1-3-1 1-14 4-22z"/>
<path transform="translate(937,1495)" d="m0 0h10l2 1-1 12-4 24-2 2h-6l-2-1v-15l2-19z"/>
<path transform="translate(969,1319)" d="m0 0h9l2 1-1 10-6 24-3 5-8-3 1-12 5-24z"/>
<path transform="translate(1665,1105)" d="m0 0h7l4 3 1 19v17l-5 1-5-2-2-2-1-34z"/>
<path transform="translate(1457,1084)" d="m0 0h8l1 5-9 30-2 4h-7l-2-1 1-11 6-21 3-5z"/>
<path transform="translate(1423,879)" d="m0 0 36 4 2 2-1 10-26-3-11-2-2-1 1-9z"/>
<path transform="translate(986,1260)" d="m0 0 7 1 3 1-1 7-7 25-3 6-2 1-7-3 1-10 8-26z"/>
<path transform="translate(1385,879)" d="m0 0h15l2 1v8l-1 2-28 2-7 1-3-1-1-7 2-4 4-1z"/>
<path transform="translate(1030,1147)" d="m0 0 6 2 2 2-1 7-9 20-6 9-5-1-3-2 1-5 8-19 6-12z"/>
<path transform="translate(1224,929)" d="m0 0h5l5 4-2 4-14 10-14 8-4 2-2-2v-3l-3-1v-3l11-8 13-8z"/>
<path transform="translate(1177,962)" d="m0 0 6 2-1 7-8 7-10 8-9 7-4-1-3-5 2-5 10-8 8-7h2v-2z"/>
<path transform="translate(1281,902)" d="m0 0 3 1 2 5-1 5-15 7-16 6-5-1v-2h-2l1-4 7-6 22-9z"/>
<path transform="translate(1650,1048)" d="m0 0h10l4 11 5 18 1 7-2 2h-7l-3-3-8-30z"/>
<path transform="translate(1510,979)" d="m0 0 10 1 2 1-2 5-5 9-12 18-2 2-5-1-3-3 1-5 7-11z"/>
<path transform="translate(1338,885)" d="m0 0 4 2 1 7-5 3-24 7-7 1-5-5 1-4 12-5z"/>
<path transform="translate(1482,890)" d="m0 0 7 1 24 8 5 4-1 7-4 2-31-11-2-2 1-7z"/>
<path transform="translate(1634,844)" d="m0 0 4 1 2 4-1 5-11 10-11 9-6 4-4-2-1-6 6-7h2v-2l11-9z"/>
<path transform="translate(1682,808)" d="m0 0 4 2 1 6-5 5-14 10-10 7-3 1-4-6 2-5 16-12 11-7z"/>
<path transform="translate(1649,1218)" d="m0 0 5 3 1 5-6 11-10 14-6 5-3-1-3-4 1-5 9-12 7-11z"/>
<path transform="translate(1447,1201)" d="m0 0h6l3 5 11 28-1 4-7 1-5-6-7-17-3-10v-4z"/>
<path transform="translate(1626,993)" d="m0 0 4 2 7 10 9 15 1 9-1 2h-6l-6-8-8-13-5-10 3-5z"/>
<path transform="translate(1476,1252)" d="m0 0 6 1 8 9 13 10 2 3v7l-4 2-11-7-14-13-4-6v-4z"/>
<path transform="translate(1059,1095)" d="m0 0 4 1 3 3-1 5-7 14-9 15-3 2-6-6 1-6 8-13 7-12z"/>
<path transform="translate(1483,1030)" d="m0 0h5l2 2-1 5-5 13-9 16-4 2-6-3 1-6 12-25 2-3z"/>
<path transform="translate(1523,1285)" d="m0 0 37 2 2 4v5l-2 2h-22l-10-1-2-1v-2l-3-1-2-6z"/>
<path transform="translate(1132 1e3)" d="m0 0 4 1 2 2-1 6-9 10-14 15h-4l-4-7 6-8 6-5 7-9 5-4z"/>
<path transform="translate(1730,777)" d="m0 0h5l2 3v5l-9 7-18 10-6 3-4-6 2-4 7-6 14-8z"/>
<path transform="translate(930,1553)" d="m0 0 10 1v11l-3 26-2 1h-8l-1-1 1-16 2-19z"/>
<path transform="translate(1093,1046)" d="m0 0 5 1 1 1-1 7-12 18-8 10-4-1-4-4 1-4 12-17 1-2h2l2-4z"/>
<path transform="translate(1665,1164)" d="m0 0 8 1 1 1v7l-4 17-5 12-3 2-5-1-1-1 1-9 7-28z"/>
<path transform="translate(1585,948)" d="m0 0 5 2 11 11 8 7 5 8v4l-5 2-6-3-19-19-1-2 1-9z"/>
<path transform="translate(1840,728)" d="m0 0 5 1 1 7-2 3-30 10h-5l-2-2 1-7 18-7z"/>
<path transform="translate(1589,885)" d="m0 0h5l2 5-1 5-24 24-5-1-1-7 4-6z"/>
<path transform="translate(1006,1204)" d="m0 0 7 1 1 1v6l-9 26-3 4-8-1 1-9 8-24z"/>
<path transform="translate(1610,1265)" d="m0 0 5 1 3 3-2 4-11 9-17 9h-5l-2-4 1-5 10-6 11-7z"/>
<path transform="translate(1785,749)" d="m0 0 3 1 2 8-3 3-28 13-5-1-1-7 6-5 16-7z"/>
</svg>
