<?xml version="1.0" encoding="UTF-8"?>
<svg version="1.1" viewBox="0 0 1276 1204" width="1280" height="1280" xmlns="http://www.w3.org/2000/svg">
<path transform="translate(181,716)" d="m0 0h22l7 2 5 6v68l-5 5-3 2h-67l-7-6-1-2v-26l2-1 34-1 7-4 4-7 1-14v-18z" fill="#090909"/>
<path transform="translate(147,493)" d="m0 0 11 1 10 4 10 6 7 2 10-1 8-5 4-5 3-2 5 1 4 2 1 5-6 9-7 6-9 4-4 1h-17l-11 20-1 5 14 9 8 9 8 16 3 8-1 5-2 2-6 1-4-2-11-22-7-7-16-9-5 1-11 8-10 3h-11l-10-3-6-4-1-1 1-7 5-4 10 3h10l8-4 7-8 13-24 3-8-13 2-6 4h-2l-2 4-5 4-6-2-4-4 2-6 7-8 10-6 5-2z" fill="#0F0F0F"/>
<path transform="translate(778,713)" d="m0 0h19l9 3 10 9 5 10 1 10-3 14-4 8-7 9-10 8-8 4-11 3h-20l-12-5-1-1v42l-1 3-2 1h-6l-2-1-1-9v-102l1-4 2-1h6l2 1 1 3v15l9-9 11-7 8-3zm3 11-13 5-10 8-7 8-5 10v12l4 6 8 6 4 1h14l11-4 10-6 7-8 4-8 1-4v-13l-4-6-6-5-7-2z" fill="#191919"/>
<path transform="translate(1047,712)" d="m0 0h21l11 4 7 6 4 8v9l-4 8-8 7-9 4-6 1h-27l-15-3 4 10 7 8 8 5 7 2h14l12-3 10-6 6 2 2 4-6 7-12 6-10 2h-19l-10-3-8-5-6-5-7-11-3-8-1-13 3-12 6-9 9-8 11-5zm1 11-10 3-9 6-6 7-1 4 7 3 14 2h16l9-2 8-6 3-5-2-5-5-4-8-3z" fill="#121212"/>
<path transform="translate(419,509)" d="m0 0h19l10 4 9 9 5 9 2 11v44l-1 2h-10l-1-2-1-25-11 12-12 9-10 5-9 2h-8l-10-3-8-7-5-9-2-8v-9l3-12 7-12 9-9 13-8zm4 10-13 4-9 7-7 8-5 10-2 7v9l2 5 8 7 6 2h8l9-4 10-7v-2l4-2 9-11 6-10 1-2-1-9-7-8-7-3z" fill="#171717"/>
<path transform="translate(876,713)" d="m0 0h19l10 4 8 7 6 11 2 9v42l-2 6h-8l-2-7v-17l1-4-5 4-7 8-8 7-10 6-8 3-13 1-9-2-9-7-6-10-2-7v-10l4-13 6-10 7-8 10-7 11-5zm5 10-9 2-11 6-8 8-6 10-3 11v7l4 8 6 5 6 2h8l10-4 12-9 11-14 5-9 1-2v-7l-4-6-6-5-11-3z" fill="#171717"/>
<path transform="translate(476,713)" d="m0 0h20l9 4 9 8 6 11 1 4v51l-1 1h-9l-1-1-1-26-15 15-10 7-8 4-10 2h-7l-10-3-8-6-6-11-1-3v-17l5-12 6-9 8-8 11-7zm6 10-10 2-10 6-6 5-7 10-4 11v12l5 8 6 4 4 1h8l10-4 8-6 8-7 11-15 3-8-1-6-5-7-10-5z" fill="#131313"/>
<path transform="translate(292,479)" d="m0 0h87l1 6-1 5-65 1h-10l-1 30h62v11h-62v53l-1 2h-10l-1-4v-102z" fill="#171717"/>
<path transform="translate(516,508)" d="m0 0 13 1 13 4 10 6 2 2-1 8-3 2-9-6-9-3-6-1h-17l-13 4-5 5 1 6 4 3 6 2 9 1 21 1 13 4 8 7 3 8v9l-3 7-5 6-8 4-11 2h-13l-18-3-14-6-5-4-1-5 4-6 5 1 5 4 10 4 9 2h23l6-3h2l1-3v-9l-4-4-7-2-29-2-10-3-9-6-4-6-1-3v-8l4-8 9-6 10-4z" fill="#161616"/>
<path transform="translate(676,712)" d="m0 0 16 1 13 4 10 6 2 2-1 7-1 3-5-2-12-6-10-2h-17l-13 4-4 3-1 5 3 5 9 3 9 1 20 1 11 3 9 6 4 7 1 8-2 9-7 8-7 4-10 2h-15l-17-3-12-5-7-5-1-7 3-4 4 1 10 6 16 4 15 1 11-2 5-4 1-2v-7l-5-5-6-2-30-2-12-4-8-6-3-5v-12l4-7 8-6 10-4z" fill="#161616"/>
<path transform="translate(588,712)" d="m0 0 14 1 8 3 10 9 4 6 2 6v53l-1 1h-10l-1-10-1-42-4-7-5-4-7-3-10-1-13 4-12 7-7 7-3 5-1 7-1 37h-10l-1-1v-75l10-1 1 1 1 14 10-8 15-7z" fill="#111"/>
<path transform="translate(1155,712)" d="m0 0 14 1 9 4 8 7 5 7 2 7v52l-1 1h-10l-1-2-1-49-5-10-4-2-13-4-10 1-12 5-10 8-6 7-2 5-1 41h-11v-76h10l1 1 1 13 10-8 12-6 7-2z" fill="#121212"/>
<path transform="translate(283,683)" d="m0 0h83l1 1v7l-1 3-36 1-1 95-1 1h-10l-1-1v-96h-34l-1-1v-9z" fill="#1D1D1D"/>
<path transform="translate(577,487)" d="m0 0h9l2 2v21h27l2 6-1 5-27 1-1 17v18l2 12 4 5 2 1h11l5-4 2-5 1-7 1-1h8l3 3-1 9-4 8-8 7-5 2h-16l-8-4-4-5-4-10-1-6v-41h-8l-1-1v-9l2-1h7v-21z" fill="#1A1A1A"/>
<path transform="translate(1215,691)" d="m0 0h8l3 1 1 4v17l25 1 3 2v8l-1 1-27 1v40l2 9 5 4h11l6-5 2-10 3-3 8 2 1 9-4 9-7 7-7 3h-15l-8-4-5-6-3-6-1-5v-45h-8l-2-2v-7l9-3z" fill="#0E0E0E"/>
<path transform="translate(404,712)" d="m0 0h13l11 2 3 2 1 8-1 1-19-1-10 3-7 6-7 10-7 14-2 6-1 25-1 3h-10l-1-10v-64l1-2h9l2 3v18l7-11 5-6 9-6z" fill="#1B1B1B"/>
<path transform="translate(976,712)" d="m0 0h13l11 2 3 2 1 6-2 3-10-1h-9l-9 3-8 7-7 10-7 15-1 4-1 23-1 5h-10l-1-9v-65l1-2h9l2 4v17l9-14 8-7z" fill="#1A1A1A"/>
<path transform="translate(155,677)" d="m0 0h16l-3 5-70 70-5 3-1-13 2-5 59-59z" fill="#1E1E1E"/>
<path transform="translate(134,676)" d="m0 0h15l-6 7-49 49h-2v-14l4-6 13-12 7-8 10-10h2l2-4z" fill="#141414"/>
<path transform="translate(178,472)" d="m0 0h7l8 4 3 5 1 6-2 7-6 6-9 1-7-3-4-5-1-2v-9l4-6z" fill="#101010"/>
<path transform="translate(173,715)" d="m0 0 3 1-1 5-8 7-18 18-7 8-7 6-3-1v-14l22-22 8-7z" fill="#151515"/>
<path transform="translate(115,676)" d="m0 0h12l-5 6h-2l-2 4-7 6-7 8-4 4h-2v2l-5 4h-1v-11l3-6 8-7 9-9z" fill="#222"/>
<path transform="translate(126,729)" d="m0 0h2v14l-2 4-8 7-5 5-2 1-12-1v-3l5-5z" fill="#1B1B1B"/>
<path transform="translate(173,682)" d="m0 0h2l1 4v10l-15 15h-16v-2l8-7 13-13z" fill="#0F0F0F"/>
<path transform="translate(175,726)" d="m0 0h1v13l-7 8-9 8-4 4-4 1h-9l2-4 26-26z" fill="#202020"/>
<path transform="translate(44,505)" d="m0 0h59l1 4-1 1h-59l-1-4z" fill="#0E0E0E"/>
<path transform="translate(93,479)" d="m0 0h59l1 5h-60l-1-3z" fill="#0A0A0A"/>
<path transform="translate(61,535)" d="m0 0h60v4l-8 1h-50l-3-2z" fill="#333"/>
<path transform="translate(41,568)" d="m0 0h53l1 5h-54l-1-4z" fill="#363636"/>
<path transform="translate(151,715)" d="m0 0h5l-2 4-8 7-12 12-2 1v-14l3-5 5-4z" fill="#161616"/>
<path transform="translate(103,676)" d="m0 0 3 1-13 13h-1l1-7 7-6z" fill="#434343"/>
<path transform="translate(175,746)" d="m0 0h1l-1 7-5 5-7 1v-2l8-7z" fill="#525252"/>
<path transform="translate(174,703)" d="m0 0 2 1v6l-1 1h-7l2-4z" fill="#484848"/>
<path transform="translate(125,752)" d="m0 0 3 1v6h-8l2-4z" fill="#494949"/>
</svg>
