<?xml version="1.0" encoding="UTF-8"?>
<svg version="1.1" viewBox="0 0 2048 2048" width="1280" height="1280" xmlns="http://www.w3.org/2000/svg">
<path d="m0 0h34l20 6 14 8 11 7 16 16 9 17 4 9 4 12v40l-7 22-9 15-6 8-14 14-17 9-13 6-15 4h-28l-27-9-19-12-15-15-8-11-4-7-8-22-2-17v-10l4-21 9-20 10-14 9-10 8-7 8-6 16-8zm-352 2 9 1 5 2 1 140 1 73v71l119 1 52 1 8 2 24 12 15 15 12 23 4 17v31l-6 22-13 19-6 7h-2v2h-2v2h-2v2l-8 6-18 7-5 1-112 2-61 1v59l5 36 2 13 8 28 8 17 7 11 13 14 24 15 31 9 24 4 52 4 15 2 20 8 9 7 10 9 10 15 4 11 5 19v27l-4 16-3 10-13 21-7 7-11 9-10 5-22 8-31 6h-60l-35-6-42-14-16-8-17-9-7-4-18-13-12-9-31-31-16-24-9-13-11-24-7-15-10-32-3-12-7-38-2-23v-468l7-31 12-24 12-14 7-8 24-14 9-4 23-7 27-3zm389 209h65l3 2v632l-3 1h-21l-87-1-13-9-9-7-9-11-9-22-4-21v-559l2-2 10-1 53-1z" fill="#FE0000"/>
</svg>
