<?xml version="1.0" encoding="UTF-8"?>
<svg version="1.1" viewBox="0 0 900 900" width="1280" height="1280" xmlns="http://www.w3.org/2000/svg">
<path transform="translate(0)" d="m0 0h900v900h-900z" fill="#EE2023"/>
<path transform="translate(381,264)" d="m0 0 4 1 1 125 77 1 12 6 7 7 5 10 2 9v10l-3 11-6 9-7 7-10 4-55 1h-23v23l3 24 4 14 5 10 7 8 11 7 14 4 12 2 27 2 10 4 7 6 5 7 4 13v13l-3 10-6 10-8 7-13 5-16 3h-22l-18-3-18-6-16-8-14-10-14-14-11-16-8-17-5-16-4-21-1-12v-202l3-14 6-12 8-9 12-7 13-4z" fill="#FEFFFE"/>
<path transform="translate(550,356)" d="m0 0h29l1 1v277h-48l-9-6-5-6-4-10-2-11v-243l1-1z" fill="#FEFFFE"/>
<path transform="translate(535,263)" d="m0 0h13l10 3 10 6 7 7 5 9 3 9v15l-3 10-6 10-7 7-12 6-7 2h-13l-12-4-8-5-5-5-6-8-4-11-1-10 2-11 4-9 6-8 8-7 8-4z" fill="#FEFFFE"/>
</svg>
